<svg width="36" height="27" viewBox="0 0 36 27" fill="none" xmlns="http://www.w3.org/2000/svg">
<path d="M34.9886 4.485C35.051 4.7112 34.9723 4.9608 34.8404 5.1558L30.6362 11.4114C30.4802 11.6532 30.1526 11.7858 29.8789 11.7858C29.8008 11.7858 29.5825 11.7702 29.4974 11.7468L26.1278 10.92V25.74C26.1278 26.1924 25.808 26.52 25.3478 26.52H8.96783C8.50763 26.52 8.18783 26.1924 8.18783 25.74V10.92L5.16143 11.7546C4.81043 11.8638 4.50623 11.7234 4.31123 11.4192L0.138231 5.1792C0.00563141 4.9764 -0.0333687 4.7502 0.0290313 4.524C0.0836313 4.29 0.247431 4.134 0.458031 4.0248L8.96783 0H12.8678C13.328 0 13.6478 0.3198 13.6478 0.78C13.6478 2.3868 15.902 3.5256 17.5088 3.5256C19.1156 3.5256 21.4478 2.3946 21.4478 0.78C21.4478 0.3276 21.7676 0 22.2278 0H26.1278L34.5518 3.9468C34.7702 4.056 34.9262 4.251 34.9886 4.485Z" fill="#B3B3B3"/>
</svg>
