<svg width="29" height="30" viewBox="0 0 29 30" fill="none" xmlns="http://www.w3.org/2000/svg">
<path d="M2 7.16667L6.125 2H22.625L26.75 7.16667M2 7.16667V25.25C2 25.9351 2.28973 26.5922 2.80546 27.0767C3.32118 27.5612 4.02065 27.8333 4.75 27.8333H24C24.7293 27.8333 25.4288 27.5612 25.9445 27.0767C26.4603 26.5922 26.75 25.9351 26.75 25.25V7.16667M2 7.16667H26.75M19.875 12.3333C19.875 13.7036 19.2955 15.0178 18.2641 15.9867C17.2326 16.9557 15.8337 17.5 14.375 17.5C12.9163 17.5 11.5174 16.9557 10.4859 15.9867C9.45446 15.0178 8.875 13.7036 8.875 12.3333" stroke="#B3B3B3" stroke-width="4" stroke-linecap="round" stroke-linejoin="round"/>
</svg>
