<svg width="21" height="25" viewBox="0 0 21 25" fill="none" xmlns="http://www.w3.org/2000/svg">
<path d="M13.9658 0.5L14.1299 0.510742C14.2903 0.53134 14.4407 0.58178 14.5684 0.655273C14.7382 0.753109 14.8522 0.882141 14.9121 1.01367H14.9131L16.8779 5.31738L16.9785 5.53906L17.2148 5.5957C18.3072 5.8605 19 6.65839 19 7.5V10.5H20.5V14.5H19V17.5C18.9979 17.906 18.8386 18.3136 18.5244 18.6602C18.208 19.0091 17.7514 19.2751 17.2158 19.4033L16.9785 19.4609L16.8779 19.6826L14.9131 23.9854C14.788 24.2587 14.4319 24.5 13.9648 24.5H5.53418C5.31268 24.4998 5.102 24.4428 4.93164 24.3447C4.76178 24.2469 4.64785 24.1179 4.58789 23.9863H4.58691L2.62207 19.6826L2.52148 19.4609L2.28516 19.4043L2.08496 19.3486C1.10882 19.0397 0.5 18.289 0.5 17.5V7.50195C0.501575 7.09529 0.660871 6.68696 0.975586 6.33984C1.29204 5.9909 1.74863 5.72486 2.28418 5.59668L2.52148 5.53906L2.62207 5.31738L4.58691 1.01367H4.58789C4.64785 0.882141 4.76178 0.753109 4.93164 0.655273C5.05935 0.58178 5.20965 0.53134 5.37012 0.510742L5.53418 0.5H13.9658ZM2.5 18H17.0029V17.5L17 7.5V7H2.5V18Z" fill="white" stroke="white"/>
</svg>
